<?xml version="1.0" standalone="no"?>
<!DOCTYPE svg PUBLIC "-//W3C//DTD SVG 20010904//EN"
 "http://www.w3.org/TR/2001/REC-SVG-20010904/DTD/svg10.dtd">
<svg version="1.0" xmlns="http://www.w3.org/2000/svg"
 width="200.000000pt" height="200.000000pt" viewBox="0 0 200.000000 200.000000"
 preserveAspectRatio="xMidYMid meet">
<metadata>
Created by potrace 1.11, written by Peter Selinger 2001-2013
</metadata>
<g transform="translate(0.000000,200.000000) scale(0.100000,-0.100000)"
fill="#000000" stroke="none">
<path d="M611 1838 c0 -7 26 -53 57 -101 53 -82 62 -91 130 -127 39 -21 72
-36 72 -32 -1 4 -17 34 -36 67 -19 33 -41 74 -49 91 -9 19 -27 36 -47 44 -18
8 -52 26 -75 42 -47 31 -53 33 -52 16z"/>
<path d="M805 1776 c-16 -12 -7 -30 115 -237 260 -440 287 -484 301 -509 8
-14 22 -36 32 -49 21 -29 22 -48 2 -31 -22 18 -18 -2 8 -41 23 -34 49 -46 105
-48 29 -1 33 2 30 21 -2 12 -18 31 -36 41 -29 17 -36 18 -44 6 -7 -10 -8 -8
-4 10 3 17 -11 49 -50 114 -30 49 -54 92 -54 94 0 2 -11 21 -25 43 -14 22 -22
40 -18 40 5 0 35 -48 67 -105 33 -58 61 -104 62 -102 2 1 4 33 5 70 1 37 5 67
10 67 4 0 5 -38 3 -84 -4 -84 -4 -84 28 -118 18 -18 41 -37 50 -43 9 -5 18
-21 20 -35 3 -24 0 -25 -54 -28 l-58 -3 -1 -102 c-1 -56 -3 -120 -5 -142 -1
-22 -3 -75 -3 -117 -1 -43 -4 -78 -9 -78 -8 0 -8 8 3 272 l7 167 -29 38 c-36
46 -46 70 -31 75 12 4 -134 256 -156 271 -6 4 -26 5 -43 2 -20 -4 -33 -2 -33
5 0 5 3 9 8 9 4 -1 17 -1 30 0 27 1 30 21 2 21 -11 0 -20 5 -20 10 0 6 5 10
10 10 6 0 5 11 -4 27 -14 27 -14 27 -112 25 -120 -4 -149 -8 -180 -28 -29 -20
-31 -40 -4 -54 15 -8 25 -7 42 4 24 15 201 26 214 13 4 -4 -26 -7 -67 -8 -104
-1 -128 -4 -141 -17 -7 -7 -10 -13 -7 -16 2 -2 48 -1 102 3 53 3 97 3 97 -1 0
-5 -36 -8 -79 -8 -44 0 -82 -4 -86 -9 -8 -13 179 -138 225 -151 56 -15 59 -37
7 -57 -23 -10 -46 -16 -52 -15 -40 11 -64 27 -69 48 -4 13 -11 24 -16 24 -6 0
-31 13 -58 30 l-47 29 -6 -27 c-10 -48 -3 -276 11 -332 22 -96 77 -188 160
-270 70 -69 197 -163 278 -204 32 -17 32 -17 32 9 0 14 4 25 9 25 4 0 7 -11 5
-25 -3 -32 7 -30 126 31 139 70 204 120 284 218 104 128 147 264 151 485 2 90
0 106 -16 122 -11 11 -29 19 -41 19 -13 1 -64 9 -114 19 -89 18 -143 43 -144
68 0 21 -21 26 -116 30 l-94 3 0 -65 c0 -36 -4 -65 -8 -65 -5 0 -8 28 -8 63
l1 62 -73 5 c-41 3 -78 2 -83 -1 -6 -3 -6 -17 0 -35 7 -19 7 -24 0 -14 -20 30
-139 232 -139 236 0 12 -45 64 -55 64 -17 0 -121 183 -107 188 18 6 14 30 -7
41 -13 7 -23 6 -36 -3z m525 -876 c0 -5 -5 -10 -11 -10 -5 0 -7 5 -4 10 3 6 8
10 11 10 2 0 4 -4 4 -10z m-43 -540 c-1 -11 -5 -20 -9 -20 -3 0 -6 9 -5 20 1
11 5 20 9 20 3 0 6 -9 5 -20z"/>
<path d="M945 1780 c-4 -6 -26 -20 -50 -33 l-44 -22 52 -82 c30 -47 59 -83 68
-83 19 0 88 51 89 66 0 6 -11 20 -23 33 -20 18 -28 20 -51 11 -42 -16 -44 -12
-9 16 l33 25 -23 40 c-23 40 -31 46 -42 29z"/>
<path d="M344 1613 c-36 -56 -50 -66 -74 -53 -16 9 -25 9 -36 0 -7 -7 -12 -16
-9 -20 3 -5 92 -67 198 -138 105 -71 273 -184 372 -251 160 -108 180 -119 183
-101 2 12 2 23 0 24 -8 6 -396 272 -525 360 -79 54 -143 99 -143 101 0 2 32
-16 71 -40 40 -24 76 -42 81 -39 4 3 17 23 28 44 l20 39 -30 16 c-17 9 -34 13
-39 11 -5 -3 -11 2 -13 12 -3 10 -19 28 -36 40 l-30 22 -18 -27z"/>
<path d="M36 1541 c-6 -8 26 -37 106 -98 18 -13 44 -20 85 -22 32 -1 70 -3 85
-5 53 -6 48 11 -18 58 -36 26 -76 51 -87 55 -36 14 -165 23 -171 12z"/>
<path d="M1110 1422 c-36 -5 -41 -14 -22 -39 17 -22 23 -23 234 -27 223 -4
241 -7 253 -45 3 -10 15 -23 28 -30 24 -12 28 -13 166 -37 52 -9 106 -23 119
-32 24 -16 24 -16 19 -156 -8 -217 -25 -295 -89 -426 -33 -67 -59 -102 -123
-166 -44 -45 -92 -87 -105 -94 -29 -14 -25 -11 53 54 178 148 242 318 242 641
l0 130 -26 12 c-14 7 -43 15 -65 18 -21 4 -46 8 -54 10 -8 2 -31 7 -50 10 -75
12 -92 18 -114 40 -13 13 -26 29 -28 36 -3 8 -42 13 -118 15 -315 11 -311 11
-308 -4 2 -12 38 -15 203 -18 216 -3 211 -2 244 -62 7 -13 33 -19 196 -49 16
-2 45 -10 65 -16 l35 -12 -1 -105 c-3 -342 -88 -526 -312 -679 -57 -39 -244
-131 -265 -131 -11 0 -61 25 -111 56 -198 122 -306 232 -363 369 -33 78 -42
148 -41 308 1 102 -2 151 -10 159 -14 14 -13 17 -17 -182 -4 -176 23 -289 93
-395 35 -54 158 -176 210 -208 23 -15 42 -30 42 -32 0 -17 -127 81 -187 144
-122 127 -183 289 -177 471 4 149 5 196 5 211 -1 14 -49 45 -57 36 -9 -8 -12
-316 -4 -372 25 -178 88 -296 223 -421 115 -107 341 -254 389 -254 13 0 82 29
154 64 321 159 461 330 519 636 4 19 8 110 10 201 3 166 3 166 -22 193 -35 38
-49 42 -275 80 -35 6 -48 14 -48 30 0 7 -11 23 -24 35 -23 21 -34 23 -207 27
-101 3 -200 6 -219 7 -19 1 -46 1 -60 -1z m420 -1086 c0 -7 -130 -76 -143 -76
-7 0 22 18 63 40 81 42 80 42 80 36z m-354 -57 c3 -5 -11 0 -30 12 -20 12 -39
25 -42 30 -3 5 11 0 30 -12 20 -12 39 -25 42 -30z m105 -49 c11 0 35 7 54 14
19 8 35 12 35 8 0 -4 -21 -15 -47 -24 -46 -17 -47 -17 -90 9 -24 13 -43 27
-43 30 0 3 16 -4 36 -16 19 -12 44 -21 55 -21z"/>
<path d="M987 1039 c-5 -18 -9 -19 -27 -9 -12 6 -24 9 -27 7 -2 -3 4 -10 14
-16 20 -10 49 -8 98 7 l30 9 -28 12 c-41 16 -54 14 -60 -10z"/>
</g>
</svg>
